<svg width="54" height="54" viewBox="0 0 54 54" fill="none" xmlns="http://www.w3.org/2000/svg">
    <path d="M49.371 15.09c-1.152-4.066-5.434-6.442-9.562-5.307a7.73 7.73 0 0 0-4.092 2.739H19.775a7.728 7.728 0 0 0-4.093-2.739c-4.13-1.135-8.411 1.241-9.564 5.307-5.653 19.94-4.176 25.814.376 27.065 3.463.952 6.828-1.318 10.723-11.214h3.87c.837 0 1.514-.667 1.514-1.491v-.89H32.89v.89c0 .824.678 1.491 1.515 1.491h3.87c3.895 9.896 7.261 12.166 10.723 11.214 4.551-1.251 6.028-7.125.376-27.065h-.002z" fill="#C7CFE2"/>
    <path d="M49.371 15.09c-1.153-4.066-5.434-6.442-9.562-5.307-.03.009-.059.02-.087.027 2.484.719 4.55 2.643 5.296 5.28 5.283 18.633 4.339 24.983.479 26.756 1.172.583 2.33.63 3.5.309 4.552-1.251 6.03-7.125.377-27.065h-.003z" fill="#AFB9D2"/>
    <path d="M15.758 26.284c0 2.456-2.021 4.446-4.514 4.446-2.493 0-4.515-1.99-4.515-4.447 0-2.456 2.02-4.445 4.515-4.445 2.494 0 4.514 1.99 4.514 4.445z" fill="#629ACC"/>
    <path d="M11.243 21.838c-.567 0-1.11.104-1.61.292 1.699.639 2.905 2.258 2.905 4.155 0 1.896-1.207 3.515-2.905 4.154a4.57 4.57 0 0 0 1.61.292c2.493 0 4.514-1.99 4.514-4.446 0-2.457-2.021-4.446-4.514-4.446v-.001z" fill="#48709B"/>
    <path d="M41.033 25.788c0 1.398-1.152 2.534-2.573 2.534-1.422 0-2.572-1.134-2.572-2.534s1.152-2.534 2.572-2.534c1.42 0 2.573 1.134 2.573 2.534z" fill="#629ACC"/>
    <path d="M38.46 23.254c-.288 0-.565.047-.824.133a2.538 2.538 0 0 1 1.749 2.4 2.538 2.538 0 0 1-1.75 2.401c.259.086.536.134.825.134 1.421 0 2.572-1.134 2.572-2.534s-1.151-2.534-2.572-2.534z" fill="#48709B"/>
    <path d="M43.753 20.618c0 1.011-.832 1.83-1.857 1.83-1.026 0-1.858-.82-1.858-1.83 0-1.01.832-1.829 1.858-1.829 1.025 0 1.857.82 1.857 1.83z" fill="#0050C4"/>
    <path d="M43.752 13.598c0 1.011-.832 1.83-1.857 1.83-1.026 0-1.858-.82-1.858-1.83 0-1.01.833-1.83 1.858-1.83 1.025 0 1.857.819 1.857 1.83z" fill="#00F0F5"/>
    <path d="M40.19 17.107c0 1.01-.832 1.829-1.857 1.829-1.026 0-1.859-.82-1.859-1.83 0-1.01.832-1.829 1.859-1.829 1.026 0 1.857.82 1.857 1.83z" fill="#C152C1"/>
    <path d="M47.317 17.107c0 1.01-.832 1.829-1.858 1.829-1.025 0-1.858-.82-1.858-1.83 0-1.01.832-1.829 1.858-1.829 1.027 0 1.858.82 1.858 1.83z" fill="#F96058"/>
    <path d="M43.753 20.618c0 1.011-.832 1.83-1.857 1.83-1.026 0-1.858-.82-1.858-1.83 0-1.01.832-1.829 1.858-1.829 1.025 0 1.857.82 1.857 1.83z" fill="#87FFFF"/>
    <path d="M43.752 13.598c0 1.011-.832 1.83-1.857 1.83-1.026 0-1.858-.82-1.858-1.83 0-1.01.833-1.83 1.858-1.83 1.025 0 1.857.819 1.857 1.83z" fill="#FFDC13"/>
    <path d="M40.19 17.107c0 1.01-.832 1.829-1.857 1.829-1.026 0-1.859-.82-1.859-1.83 0-1.01.832-1.829 1.859-1.829 1.026 0 1.857.82 1.857 1.83z" fill="#629ACC"/>
    <path d="M47.317 17.107c0 1.01-.832 1.829-1.858 1.829-1.025 0-1.858-.82-1.858-1.83 0-1.01.832-1.829 1.858-1.829 1.027 0 1.858.82 1.858 1.83z" fill="#E94141"/>
    <path d="M22.6 12.52h10.288v16.038H22.6V12.52z" fill="#AFB9D2"/>
    <path d="M29.744 12.52v13.415c0 .686-.758 1.242-1.694 1.242H22.6v1.381h10.288V12.52h-3.144z" fill="#959CB3"/>
    <path d="M22.6 12.521h10.288v7.563H22.6V12.52z" fill="#48709B"/>
    <path d="M29.743 12.521h3.145v7.563h-3.145V12.52z" fill="#3A6187"/>
    <path d="M15.863 15.934c0 1.399-1.152 2.534-2.572 2.534-1.42 0-2.573-1.134-2.573-2.534S11.869 13.4 13.29 13.4c1.421 0 2.572 1.134 2.572 2.534z" fill="#629ACC"/>
    <path d="M13.292 13.398a2.61 2.61 0 0 0-.824.134 2.538 2.538 0 0 1 1.75 2.4 2.538 2.538 0 0 1-1.75 2.4c.258.087.537.134.824.134 1.42 0 2.572-1.134 2.572-2.534s-1.152-2.534-2.572-2.534z" fill="#48709B"/>
</svg>
