<svg width="24" height="24" viewBox="0 0 24 24" fill="none" xmlns="http://www.w3.org/2000/svg">
    <rect x="8" y="3" width="14" height="18" rx="1" stroke="#8C8C8C" stroke-width="2"/>
    <rect x="1" y="8" width="19" height="10" rx="2" fill="#EF4345"/>
    <path d="M13.852 16v-6H18v1.153h-2.713v1.27h2.437v1.153h-2.437V16h-1.435zM10.326 16H8.098v-6h2.23c1.866.008 3.015 1.127 3.024 3-.009 1.873-1.158 3-3.025 3zm-.794-1.203h.743c1.054 0 1.624-.492 1.624-1.797 0-1.297-.57-1.788-1.642-1.797h-.725v3.594zM3 16v-6h2.489c1.382.008 2.229.848 2.229 2.068 0 1.237-.864 2.06-2.264 2.05h-1.02V16H3zm1.434-3h.76c.675.008 1.038-.364 1.038-.932 0-.56-.363-.915-1.037-.915h-.76V13z" fill="#fff"/>
</svg>
