<svg width="24" height="24" viewBox="0 0 24 24" fill="none" xmlns="http://www.w3.org/2000/svg">
    <path d="M11.305 3.377c.31-.503 1.08-.503 1.39 0l2.769 4.48a.804.804 0 0 0 .525.359l5.376 1.097c.603.123.84.813.43 1.246l-3.665 3.866a.73.73 0 0 0-.2.582l.553 5.157c.062.578-.56 1.005-1.125.77l-5.034-2.09a.85.85 0 0 0-.649 0l-5.033 2.09c-.564.235-1.187-.192-1.125-.77l.554-5.157a.73.73 0 0 0-.2-.582l-3.666-3.866c-.41-.433-.173-1.123.43-1.246l5.376-1.097a.803.803 0 0 0 .525-.36l2.769-4.48z" fill="#DCDEE2" stroke="#DCDEE2" stroke-width="1.5"/>
</svg>
