<svg width="24" height="20" viewBox="0 0 24 20" fill="none" xmlns="http://www.w3.org/2000/svg">
    <g clip-path="url(#l2pk29crya)">
        <path d="M23.525 7.93 13.267 19.423c-.687.77-1.846.77-2.534 0L.475 7.93a1.92 1.92 0 0 1-.057-2.46L4.322.645C4.652.235 5.137 0 5.646 0h12.708c.509 0 .993.235 1.324.645L23.58 5.47a1.92 1.92 0 0 1-.056 2.46z" fill="#4C66A4"/>
        <path d="M.001 6.727c.014.435.172.865.474 1.203l10.258 11.492c.688.77 1.846.77 2.534 0L23.525 7.93c.302-.338.46-.768.473-1.203H.001z" fill="#243E86"/>
        <path d="m12.299 19.97 4.548-13.243H7.154L11.7 19.97c.198.036.4.036.598 0z" fill="#4C66A4"/>
        <path d="M7.153 6.727 12 0l4.846 6.727H7.153z" fill="#243E86"/>
    </g>
    <defs>
        <clipPath id="l2pk29crya">
            <path fill="#fff" d="M0 0h24v20H0z"/>
        </clipPath>
    </defs>
</svg>
