<svg width="54" height="54" viewBox="0 0 54 54" fill="none" xmlns="http://www.w3.org/2000/svg">
    <path d="M26.999 24.069c-.39 0-.705-.334-.705-.745v-9.69c0-.412.315-.745.705-.745.39 0 .705.333.705.745v9.69c0 .411-.316.745-.705.745z" fill="#F5D550"/>
    <path d="M20.977 42.81c3.528-1.741 3.984-8.595 1.02-15.307-2.965-6.713-8.228-10.743-11.755-9.002-3.527 1.742-3.984 8.595-1.019 15.308 2.965 6.713 8.227 10.743 11.754 9.001z" fill="#FAE66E"/>
    <path d="M44.788 33.845c2.964-6.713 2.508-13.566-1.019-15.308-3.527-1.741-8.79 2.289-11.754 9.002-2.965 6.712-2.509 13.566 1.018 15.307 3.527 1.742 8.79-2.288 11.755-9.001z" fill="#F5D550"/>
    <path d="M17.89 15.38c-3.659 1.408-4.682 8.193-2.285 15.156 2.397 6.962 7.305 11.466 10.965 10.058.146-.062.29-.134.428-.214V21.342c-2.593-4.517-6.234-7.068-9.109-5.962h.001z" fill="#FFF59F"/>
    <path d="M36.108 15.38c-2.875-1.106-6.516 1.445-9.11 5.963V40.38c.14.08.283.152.429.214 3.659 1.408 8.568-3.095 10.965-10.058 2.396-6.964 1.373-13.748-2.285-15.156z" fill="#FAE66E"/>
    <path d="M35.74 30.265c-.39 0-.705-.334-.704-.746 0-.087.014-.173.042-.254a17.25 17.25 0 0 0 .96-7.802c-.06-.407.202-.789.587-.854.385-.065.746.212.808.62a18.849 18.849 0 0 1-1.027 8.544.707.707 0 0 1-.665.491v.001z" fill="#FFF59F"/>
    <path d="M10.08 40.467h33.838v2.981c0 .824-.631 1.49-1.41 1.49H11.49c-.779 0-1.41-.666-1.41-1.49v-2.981z" fill="#E6465A"/>
    <path d="M10.08 40.467h33.838v2.981H10.08v-2.981z" fill="#DB3250"/>
    <path d="M10.08 35.992h33.837c1.557 0 2.82 1.335 2.82 2.982 0 1.646-1.263 2.981-2.82 2.981H10.08c-1.557 0-2.82-1.335-2.82-2.981 0-1.647 1.263-2.982 2.82-2.982z" fill="#FAA542"/>
    <path d="M11.49 37.482c-1.552-.006-2.814 1.319-2.82 2.96-.001.429.086.854.254 1.244a2.66 2.66 0 0 0 1.156.269h33.837c1.552.006 2.814-1.319 2.82-2.96a3.115 3.115 0 0 0-.254-1.244 2.66 2.66 0 0 0-1.156-.269H11.49z" fill="#F29122"/>
    <path d="M12.9 39.721c.39 0 .705-.333.705-.745s-.316-.745-.705-.745c-.39 0-.705.333-.705.745s.316.745.705.745zM18.54 39.721c.389 0 .704-.333.704-.745s-.315-.745-.704-.745c-.39 0-.705.333-.705.745s.315.745.704.745zM24.18 39.721c.388 0 .704-.333.704-.745s-.316-.745-.705-.745c-.39 0-.705.333-.705.745s.316.745.705.745zM29.819 39.721c.389 0 .704-.333.704-.745s-.315-.745-.704-.745c-.39 0-.705.333-.705.745s.315.745.705.745zM35.458 39.721c.39 0 .705-.333.705-.745s-.316-.745-.705-.745c-.39 0-.705.333-.705.745s.316.745.705.745zM41.098 39.721c.389 0 .705-.333.705-.745s-.316-.745-.705-.745c-.39 0-.705.333-.705.745s.315.745.705.745z" fill="#FAE66E"/>
    <path d="m29.819 10.65-2.82 4.472-2.82-4.472 2.82-4.472 2.82 4.472z" fill="#E6465A"/>
    <path d="M26.999 15.87a.698.698 0 0 1-.587-.332l-2.82-4.473a.782.782 0 0 1 0-.827l2.82-4.472a.706.706 0 0 1 1.025-.157.759.759 0 0 1 .148.157l2.82 4.472a.782.782 0 0 1 0 .827l-2.82 4.473a.696.696 0 0 1-.587.331zm-1.974-5.218 1.974 3.13 1.974-3.13-1.974-3.13-1.974 3.13z" fill="#F5D550"/>
</svg>
